<?xml version="1.0" encoding="utf-8"?>
<!-- Generator: Adobe Illustrator 24.2.0, SVG Export Plug-In . SVG Version: 6.00 Build 0)  -->
<svg version="1.1" id="ice_cream" xmlns="http://www.w3.org/2000/svg" xmlns:xlink="http://www.w3.org/1999/xlink" x="0px" y="0px"
	 viewBox="0 0 212 311" style="enable-background:new 0 0 212 311;" xml:space="preserve">
<style type="text/css">
	.st0{fill:#F1E7BD;}
	.st1{fill:#004463;}
	.st2{fill:#7C5C55;}
	.st3{fill:#FFCB5B;}
	.st4{fill:#D88E23;}
	.st5{fill:#014463;}
	.st6{fill:#F6B545;}
</style>
<g id="ice_cream_parts">
	<path class="st0" d="M107,20.6c41.4,0,75,33.6,75,75c0,41.4-33.6,75-75,75s-75-33.6-75-75S65.6,20.6,107,20.6"/>
	<path class="st1" d="M107,184.3c-49.1,0-88.6-39.5-88.6-88.6S57.9,7,107,7s88.6,39.5,88.6,88.6S156.1,184.3,107,184.3 M107,20.6
		c-41.6,0-75,33.4-75,75c0,41.6,33.4,75,75,75c41.6,0,75-33.4,75-75S148.6,20.6,107,20.6"/>
	<path class="st2" d="M133.6,25.4c21.1,13.6,34.8,36.8,34.8,63.4c0,41.6-33.4,75-75,75c-9.5,0-18.4-2-26.6-4.8
		c11.6,7.5,25.2,11.6,40.2,11.6c41.6,0,75-33.4,75-75C182,63.6,161.5,36.3,133.6,25.4"/>
	<path class="st2" d="M93.4,34.3c3.8,0,6.8,3,6.8,6.8s-3.1,6.8-6.8,6.8s-6.8-3-6.8-6.8S89.6,34.3,93.4,34.3"/>
	<path class="st2" d="M93.4,82c3.8,0,6.8,3,6.8,6.8s-3.1,6.8-6.8,6.8s-6.8-3-6.8-6.8S89.6,82,93.4,82"/>
	<path class="st2" d="M127.5,75.2c3.8,0,6.8,3,6.8,6.8s-3.1,6.8-6.8,6.8c-3.8,0-6.8-3-6.8-6.8S123.7,75.2,127.5,75.2"/>
	<path class="st2" d="M66.1,54.7c3.8,0,6.8,3,6.8,6.8s-3.1,6.8-6.8,6.8s-6.8-3-6.8-6.8S62.3,54.7,66.1,54.7"/>
	<path class="st2" d="M161.5,88.8c3.8,0,6.8,3,6.8,6.8s-3.1,6.8-6.8,6.8s-6.8-3-6.8-6.8S157.8,88.8,161.5,88.8"/>
	<path class="st2" d="M52.5,88.8c3.8,0,6.8,3,6.8,6.8s-3.1,6.8-6.8,6.8s-6.8-3-6.8-6.8S48.7,88.8,52.5,88.8"/>
	<path class="st2" d="M134.3,41.1c3.8,0,6.8,3,6.8,6.8s-3.1,6.8-6.8,6.8s-6.8-3-6.8-6.8S130.5,41.1,134.3,41.1"/>
	<path class="st3" d="M37.5,193.8c0,2,2,4.1,4.8,4.1c8.9,0,17,6.8,18.4,15.7l10.2,73.6c0.7,3.4,3.4,6.1,6.8,6.1h58
		c3.4,0,6.1-2.7,6.8-6.1l10.2-73.6c2-8.9,10.2-15.7,19.1-15.7c2.7,0,4.1-2,4.8-4.1l4.8-36.8H32.7L37.5,193.8z"/>
	<path class="st4" d="M175.2,157h-7.5h-135l0.7,6.8h117.3c8.2,0,14.3,7.5,13.6,15l-0.7,7.5c0,2.7-2,4.1-4.8,4.1
		c-8.9,0-17,6.8-18.4,15.7l-0.7,5.5H60c0,0.7,0.7,1.4,0.7,2l0.7,4.8h62c8.2,0,15,7.5,13.6,15.7l-6.8,47c-0.7,3.4-3.4,6.1-6.8,6.1
		H70.9v0.7c0.7,3.4,3.4,6.1,6.8,6.1h58c3.4,0,6.1-2.7,6.8-6.1l10.2-73.6c2-9.5,9.5-16.4,19.1-16.4c2.7,0,4.8-2,4.8-4.1l4.8-36.8
		H175.2z"/>
	<path class="st5" d="M193.6,145.4c-0.7-1.4-2.7-2-4.8-2H25.2c-2,0-4.1,0.7-4.8,2c-1.4,2-2,3.4-2,5.5l5.5,44.3
		c1.4,9.5,8.9,16.4,18.4,16.4c2.7,0,4.8,2,4.8,4.1l10.2,73.6c1.4,10.2,10.2,17.7,20.5,17.7h58c10.2,0,19.1-7.5,20.5-17.7l10.2-73.6
		c0.7-2.7,2.7-4.1,4.8-4.1c9.5,0,17-6.8,18.4-16.4l5.5-44.3C195.6,148.8,195,147.5,193.6,145.4 M176.5,193.8c0,2-2,4.1-4.8,4.1
		c-8.9,0-17,6.8-18.4,15.7l-10.2,73.6c-0.7,3.4-3.4,6.1-6.8,6.1h-58c-3.4,0-6.1-2.7-6.8-6.1l-10.2-73.6c0-0.7-0.7-1.4-0.7-2h80.5
		c4.1,0,6.8-2.7,6.8-6.8c0-4.1-2.7-6.8-6.8-6.8H42.2c-2.7,0-4.1-2-4.8-4.1L32.7,157h148L176.5,193.8z"/>
	<path class="st3" d="M21.8,143.4h170.5c2,0,3.4-1.4,3.4-3.4c0-2-1.4-3.4-3.4-3.4H21.8c-2,0-3.4,1.4-3.4,3.4
		C18.4,142,19.7,143.4,21.8,143.4"/>
	<path class="st1" d="M192.2,157H21.8c-9.5,0-17-7.5-17-17s7.5-17,17-17h170.5c9.5,0,17,7.5,17,17S201.8,157,192.2,157 M21.8,136.5
		c-2,0-3.4,1.4-3.4,3.4c0,2,1.4,3.4,3.4,3.4h170.5c2,0,3.4-1.4,3.4-3.4c0-2-1.4-3.4-3.4-3.4H21.8z"/>
	<path class="st0" d="M72.9,116.1V157c0,7.5,6.1,13.6,13.6,13.6s13.6-6.1,13.6-13.6c0-7.5,6.1-13.6,13.6-13.6
		c7.5,0,13.6,6.1,13.6,13.6v13.6c0,7.5,6.1,13.6,13.6,13.6s13.6-6.1,13.6-13.6v-54.5L72.9,116.1L72.9,116.1z"/>
	<path class="st5" d="M154.7,109.3c-4.1,0-6.8,2.7-6.8,6.8v54.5c0,4.1-2.7,6.8-6.8,6.8c-4.1,0-6.8-2.7-6.8-6.8V157v-20.5
		c0-4.1-2.7-6.8-6.8-6.8c-4.1,0-6.8,2.7-6.8,6.8v1.4c-2-0.7-4.1-1.4-6.8-1.4c-2.7,0-4.8,0.7-6.8,1.4v-21.8c0-4.1-2.7-6.8-6.8-6.8
		s-6.8,2.7-6.8,6.8V157c0,4.1-2.7,6.8-6.8,6.8s-6.8-2.7-6.8-6.8v-40.9c0-4.1-2.7-6.8-6.8-6.8s-6.8,2.7-6.8,6.8V157
		c0,11.6,8.9,20.5,20.5,20.5S107,168.6,107,157c0-4.1,2.7-6.8,6.8-6.8s6.8,2.7,6.8,6.8v13.6c0,11.6,8.9,20.5,20.5,20.5
		c11.6,0,20.5-8.9,20.5-20.5v-54.5C161.5,112,158.8,109.3,154.7,109.3"/>
	<path class="st2" d="M141.1,177.5L141.1,177.5v-54.5c0-4.1,2.7-6.8,6.8-6.8v54.5C147.9,174.7,145.2,177.5,141.1,177.5"/>
	<path class="st2" d="M86.5,163.8L86.5,163.8v-40.9c0-4.1,2.7-6.8,6.8-6.8V157C93.4,161.1,90.6,163.8,86.5,163.8"/>
	<rect x="161.5" y="136.5" class="st6" width="6.8" height="6.8"/>
</g>
</svg>
